<svg width="229" height="69" viewBox="0 0 229 69" fill="none" xmlns="http://www.w3.org/2000/svg">
<rect x="144.602" y="0.869949" width="31.1599" height="58.6539" rx="15.5799" transform="rotate(32.157 144.602 0.869949)" fill="#0152A8"/>
<path d="M128.342 26.7324L154.722 43.317L148.056 53.9206C143.476 61.2052 133.858 63.3979 126.574 58.8182C119.289 54.2385 117.096 44.6206 121.676 37.336L128.342 26.7324Z" fill="#00DCA6"/>
<rect x="127.373" y="25.2035" width="34.0242" height="2.44391" rx="1.22196" transform="rotate(21.052 127.373 25.2035)" fill="#00DCA6"/>
<rect x="126.495" y="27.4843" width="34.0242" height="2.44391" rx="1.22196" transform="rotate(21.052 126.495 27.4843)" fill="#DCEDFE"/>
<rect x="125.617" y="29.7651" width="34.0242" height="2.44391" rx="1.22196" transform="rotate(21.052 125.617 29.7651)" fill="#0152A8"/>
<path d="M11.8 54.9999V25.4999H0.2V19.9999H29.9V25.4999H18.3V54.9999H11.8ZM45.0781 27.9999C47.2115 27.9999 49.1115 28.4166 50.7781 29.2499C52.4781 30.0833 53.8115 31.3666 54.7781 33.0999C55.7448 34.7999 56.2281 36.9999 56.2281 39.6999V54.9999H49.9781V40.4999C49.9781 38.1333 49.4115 36.3666 48.2781 35.1999C47.1781 34.0333 45.6281 33.4499 43.6281 33.4499C42.1615 33.4499 40.8615 33.7499 39.7281 34.3499C38.5948 34.9499 37.7115 35.8499 37.0781 37.0499C36.4781 38.2166 36.1781 39.6999 36.1781 41.4999V54.9999H29.9281V17.8999H36.1781V35.4999L34.8281 33.2999C35.7615 31.5999 37.1115 30.2999 38.8781 29.3999C40.6781 28.4666 42.7448 27.9999 45.0781 27.9999ZM72.5055 55.3499C69.5388 55.3499 66.9388 54.7666 64.7055 53.5999C62.5055 52.3999 60.7888 50.7666 59.5555 48.6999C58.3555 46.6333 57.7555 44.2833 57.7555 41.6499C57.7555 38.9833 58.3388 36.6333 59.5055 34.5999C60.7055 32.5333 62.3388 30.9166 64.4055 29.7499C66.5055 28.5833 68.8888 27.9999 71.5555 27.9999C74.1555 27.9999 76.4721 28.5666 78.5055 29.6999C80.5388 30.8333 82.1388 32.4333 83.3055 34.4999C84.4721 36.5666 85.0555 38.9999 85.0555 41.7999C85.0555 42.0666 85.0388 42.3666 85.0055 42.6999C85.0055 43.0333 84.9888 43.3499 84.9555 43.6499H62.7055V39.4999H81.6555L79.2055 40.7999C79.2388 39.2666 78.9221 37.9166 78.2555 36.7499C77.5888 35.5833 76.6721 34.6666 75.5055 33.9999C74.3721 33.3333 73.0555 32.9999 71.5555 32.9999C70.0221 32.9999 68.6721 33.3333 67.5055 33.9999C66.3721 34.6666 65.4721 35.5999 64.8055 36.7999C64.1721 37.9666 63.8555 39.3499 63.8555 40.9499V41.9499C63.8555 43.5499 64.2221 44.9666 64.9555 46.1999C65.6888 47.4333 66.7221 48.3833 68.0555 49.0499C69.3888 49.7166 70.9221 50.0499 72.6555 50.0499C74.1555 50.0499 75.5055 49.8166 76.7055 49.3499C77.9055 48.8833 78.9721 48.1499 79.9055 47.1499L83.2555 50.9999C82.0555 52.3999 80.5388 53.4833 78.7055 54.2499C76.9055 54.9833 74.8388 55.3499 72.5055 55.3499Z" fill="#1E1E1E"/>
<path d="M103.609 55.4999C100.942 55.4999 98.459 55.0666 96.159 54.1999C93.8923 53.2999 91.909 52.0499 90.209 50.4499C88.5423 48.8166 87.2423 46.8999 86.309 44.6999C85.3757 42.4999 84.909 40.0999 84.909 37.4999C84.909 34.8999 85.3757 32.4999 86.309 30.2999C87.2423 28.0999 88.559 26.1999 90.259 24.5999C91.959 22.9666 93.9423 21.7166 96.209 20.8499C98.4757 19.9499 100.959 19.4999 103.659 19.4999C106.526 19.4999 109.142 19.9999 111.509 20.9999C113.876 21.9666 115.876 23.4166 117.509 25.3499L113.309 29.2999C112.042 27.9333 110.626 26.9166 109.059 26.2499C107.492 25.5499 105.792 25.1999 103.959 25.1999C102.126 25.1999 100.442 25.4999 98.909 26.0999C97.409 26.6999 96.0923 27.5499 94.959 28.6499C93.859 29.7499 92.9923 31.0499 92.359 32.5499C91.759 34.0499 91.459 35.6999 91.459 37.4999C91.459 39.2999 91.759 40.9499 92.359 42.4499C92.9923 43.9499 93.859 45.2499 94.959 46.3499C96.0923 47.4499 97.409 48.2999 98.909 48.8999C100.442 49.4999 102.126 49.7999 103.959 49.7999C105.792 49.7999 107.492 49.4666 109.059 48.7999C110.626 48.0999 112.042 47.0499 113.309 45.6499L117.509 49.6499C115.876 51.5499 113.876 52.9999 111.509 53.9999C109.142 54.9999 106.509 55.4999 103.609 55.4999ZM167.329 54.9999V19.9999H181.729C184.829 19.9999 187.479 20.4999 189.679 21.4999C191.912 22.4999 193.629 23.9333 194.829 25.7999C196.029 27.6666 196.629 29.8833 196.629 32.4499C196.629 35.0166 196.029 37.2333 194.829 39.0999C193.629 40.9333 191.912 42.3499 189.679 43.3499C187.479 44.3166 184.829 44.7999 181.729 44.7999H170.929L173.829 41.8499V54.9999H167.329ZM190.229 54.9999L181.379 42.2999H188.329L197.229 54.9999H190.229ZM173.829 42.5499L170.929 39.4499H181.429C184.296 39.4499 186.446 38.8333 187.879 37.5999C189.346 36.3666 190.079 34.6499 190.079 32.4499C190.079 30.2166 189.346 28.4999 187.879 27.2999C186.446 26.0999 184.296 25.4999 181.429 25.4999H170.929L173.829 22.2999V42.5499ZM205.651 34.5499H223.051V39.8999H205.651V34.5499ZM206.151 49.5499H225.901V54.9999H199.651V19.9999H225.201V25.4499H206.151V49.5499Z" fill="#0152A8"/>
</svg>
