<svg width="229" height="61" viewBox="0 0 229 61" fill="none" xmlns="http://www.w3.org/2000/svg">
<rect x="144.602" y="-7.13007" width="31.1599" height="58.6539" rx="15.5799" transform="rotate(32.157 144.602 -7.13007)" fill="white"/>
<path d="M128.342 18.7324L154.722 35.317L148.056 45.9206C143.476 53.2052 133.858 55.3979 126.574 50.8182V50.8182C119.289 46.2385 117.096 36.6206 121.676 29.336L128.342 18.7324Z" fill="#00DCA6"/>
<rect x="127.373" y="17.2035" width="34.0242" height="2.44391" rx="1.22196" transform="rotate(21.052 127.373 17.2035)" fill="#00DCA6"/>
<rect x="126.495" y="19.4843" width="34.0242" height="2.44391" rx="1.22196" transform="rotate(21.052 126.495 19.4843)" fill="#DCEDFE"/>
<rect x="125.617" y="21.7651" width="34.0242" height="2.44391" rx="1.22196" transform="rotate(21.052 125.617 21.7651)" fill="white"/>
<path d="M11.8 46.9999V17.4999H0.2V11.9999H29.9V17.4999H18.3V46.9999H11.8ZM45.0781 19.9999C47.2115 19.9999 49.1115 20.4166 50.7781 21.2499C52.4781 22.0833 53.8115 23.3666 54.7781 25.0999C55.7448 26.7999 56.2281 28.9999 56.2281 31.6999V46.9999H49.9781V32.4999C49.9781 30.1333 49.4115 28.3666 48.2781 27.1999C47.1781 26.0333 45.6281 25.4499 43.6281 25.4499C42.1615 25.4499 40.8615 25.7499 39.7281 26.3499C38.5948 26.9499 37.7115 27.8499 37.0781 29.0499C36.4781 30.2166 36.1781 31.6999 36.1781 33.4999V46.9999H29.9281V9.89994H36.1781V27.4999L34.8281 25.2999C35.7615 23.5999 37.1115 22.2999 38.8781 21.3999C40.6781 20.4666 42.7448 19.9999 45.0781 19.9999ZM72.5055 47.3499C69.5388 47.3499 66.9388 46.7666 64.7055 45.5999C62.5055 44.3999 60.7888 42.7666 59.5555 40.6999C58.3555 38.6333 57.7555 36.2833 57.7555 33.6499C57.7555 30.9833 58.3388 28.6333 59.5055 26.5999C60.7055 24.5333 62.3388 22.9166 64.4055 21.7499C66.5055 20.5833 68.8888 19.9999 71.5555 19.9999C74.1555 19.9999 76.4721 20.5666 78.5055 21.6999C80.5388 22.8333 82.1388 24.4333 83.3055 26.4999C84.4721 28.5666 85.0555 30.9999 85.0555 33.7999C85.0555 34.0666 85.0388 34.3666 85.0055 34.6999C85.0055 35.0333 84.9888 35.3499 84.9555 35.6499H62.7055V31.4999H81.6555L79.2055 32.7999C79.2388 31.2666 78.9221 29.9166 78.2555 28.7499C77.5888 27.5833 76.6721 26.6666 75.5055 25.9999C74.3721 25.3333 73.0555 24.9999 71.5555 24.9999C70.0221 24.9999 68.6721 25.3333 67.5055 25.9999C66.3721 26.6666 65.4721 27.5999 64.8055 28.7999C64.1721 29.9666 63.8555 31.3499 63.8555 32.9499V33.9499C63.8555 35.5499 64.2221 36.9666 64.9555 38.1999C65.6888 39.4333 66.7221 40.3833 68.0555 41.0499C69.3888 41.7166 70.9221 42.0499 72.6555 42.0499C74.1555 42.0499 75.5055 41.8166 76.7055 41.3499C77.9055 40.8833 78.9721 40.1499 79.9055 39.1499L83.2555 42.9999C82.0555 44.3999 80.5388 45.4833 78.7055 46.2499C76.9055 46.9833 74.8388 47.3499 72.5055 47.3499Z" fill="#DCEDFE"/>
<path d="M103.609 47.4999C100.942 47.4999 98.459 47.0666 96.159 46.1999C93.8923 45.2999 91.909 44.0499 90.209 42.4499C88.5423 40.8166 87.2423 38.8999 86.309 36.6999C85.3757 34.4999 84.909 32.0999 84.909 29.4999C84.909 26.8999 85.3757 24.4999 86.309 22.2999C87.2423 20.0999 88.559 18.1999 90.259 16.5999C91.959 14.9666 93.9423 13.7166 96.209 12.8499C98.4757 11.9499 100.959 11.4999 103.659 11.4999C106.526 11.4999 109.142 11.9999 111.509 12.9999C113.876 13.9666 115.876 15.4166 117.509 17.3499L113.309 21.2999C112.042 19.9333 110.626 18.9166 109.059 18.2499C107.492 17.5499 105.792 17.1999 103.959 17.1999C102.126 17.1999 100.442 17.4999 98.909 18.0999C97.409 18.6999 96.0923 19.5499 94.959 20.6499C93.859 21.7499 92.9923 23.0499 92.359 24.5499C91.759 26.0499 91.459 27.6999 91.459 29.4999C91.459 31.2999 91.759 32.9499 92.359 34.4499C92.9923 35.9499 93.859 37.2499 94.959 38.3499C96.0923 39.4499 97.409 40.2999 98.909 40.8999C100.442 41.4999 102.126 41.7999 103.959 41.7999C105.792 41.7999 107.492 41.4666 109.059 40.7999C110.626 40.0999 112.042 39.0499 113.309 37.6499L117.509 41.6499C115.876 43.5499 113.876 44.9999 111.509 45.9999C109.142 46.9999 106.509 47.4999 103.609 47.4999ZM167.329 46.9999V11.9999H181.729C184.829 11.9999 187.479 12.4999 189.679 13.4999C191.912 14.4999 193.629 15.9333 194.829 17.7999C196.029 19.6666 196.629 21.8833 196.629 24.4499C196.629 27.0166 196.029 29.2333 194.829 31.0999C193.629 32.9333 191.912 34.3499 189.679 35.3499C187.479 36.3166 184.829 36.7999 181.729 36.7999H170.929L173.829 33.8499V46.9999H167.329ZM190.229 46.9999L181.379 34.2999H188.329L197.229 46.9999H190.229ZM173.829 34.5499L170.929 31.4499H181.429C184.296 31.4499 186.446 30.8333 187.879 29.5999C189.346 28.3666 190.079 26.6499 190.079 24.4499C190.079 22.2166 189.346 20.4999 187.879 19.2999C186.446 18.0999 184.296 17.4999 181.429 17.4999H170.929L173.829 14.2999V34.5499ZM205.651 26.5499H223.051V31.8999H205.651V26.5499ZM206.151 41.5499H225.901V46.9999H199.651V11.9999H225.201V17.4499H206.151V41.5499Z" fill="white"/>
</svg>
